<svg width="11" height="9" viewBox="0 0 11 9" fill="none" xmlns="http://www.w3.org/2000/svg">
<path d="M9.7417 2.98231L7.39811 0.209356C7.28481 0.0753053 7.13116 0 6.97096 0C6.81075 0 6.65711 0.0753053 6.54381 0.209356C6.43054 0.343447 6.36691 0.52529 6.36691 0.714895C6.36691 0.9045 6.43054 1.08634 6.54381 1.22043L8.69165 3.76386H0.604174C0.443937 3.76386 0.290263 3.83919 0.176958 3.97329C0.0636538 4.10739 0 4.28926 0 4.47891C0 4.66855 0.0636538 4.85042 0.176958 4.98452C0.290263 5.11862 0.443937 5.19395 0.604174 5.19395H8.7285L6.54381 7.77885C6.48763 7.84526 6.44307 7.92412 6.41267 8.01093C6.38226 8.09773 6.36661 8.19078 6.36661 8.28475C6.36661 8.37872 6.38226 8.47176 6.41267 8.55857C6.44307 8.64537 6.48763 8.72424 6.54381 8.79064C6.65711 8.9247 6.81075 9 6.97096 9C7.13116 9 7.28481 8.9247 7.39811 8.79064L9.74231 6.01697C10.0812 5.61381 10.2714 5.0682 10.2713 4.49949C10.2712 3.93079 10.0808 3.38529 9.7417 2.98231Z" fill="#777777"/>
</svg>
