<svg width="15" height="13" viewBox="0 0 15 13" fill="none" xmlns="http://www.w3.org/2000/svg">
<path d="M13.8653 6.39823L8.20514 0.741004L7.82574 0.361609C7.7393 0.275735 7.6224 0.227539 7.50055 0.227539C7.3787 0.227539 7.2618 0.275735 7.17535 0.361609L1.1358 6.39823C1.04723 6.48646 0.977221 6.59155 0.929922 6.70728C0.882623 6.82301 0.858988 6.94704 0.860412 7.07206C0.866272 7.58768 1.29547 7.9993 1.8111 7.9993H2.43365V12.7703H12.5674V7.9993H13.2032C13.4537 7.9993 13.6895 7.90116 13.8668 7.72391C13.954 7.63692 14.0232 7.53347 14.0702 7.41957C14.1172 7.30567 14.1412 7.18357 14.1407 7.06034C14.1407 6.81132 14.0425 6.57548 13.8653 6.39823ZM8.32086 11.7156H6.68024V8.72733H8.32086V11.7156ZM11.5128 6.94462V11.7156H9.25836V8.37577C9.25836 8.05204 8.99615 7.78983 8.67242 7.78983H6.32867C6.00494 7.78983 5.74274 8.05204 5.74274 8.37577V11.7156H3.48834V6.94462H2.08209L7.50201 1.52909L7.84039 1.86747L12.9205 6.94462H11.5128Z" fill="#5D6C7B"/>
</svg>
