<svg width="42" height="42" viewBox="0 0 42 42" fill="none" xmlns="http://www.w3.org/2000/svg">
<path d="M41.6927 40.2073L31.1927 29.7073C31.1878 29.7024 31.1815 29.701 31.1766 29.6968C33.9815 26.544 35.7 22.4028 35.7 17.85C35.7 7.99189 27.7081 0 17.85 0C7.99189 0 0 7.99189 0 17.85C0 27.7081 7.99189 35.7 17.85 35.7C22.4028 35.7 26.5433 33.9815 29.6968 31.1759C29.7017 31.1808 29.7031 31.1871 29.7073 31.192L40.2073 41.692C40.4124 41.8978 40.6812 42 40.95 42C41.2188 42 41.4876 41.8978 41.6927 41.6927C42.1022 41.2825 42.1022 40.6175 41.6927 40.2073ZM17.85 33.6C9.16576 33.6 2.1 26.5342 2.1 17.85C2.1 9.16576 9.16576 2.1 17.85 2.1C26.5342 2.1 33.6 9.16576 33.6 17.85C33.6 26.5342 26.5342 33.6 17.85 33.6Z" fill="black"/>
<path d="M17.85 4.823C15.4938 4.823 13.5771 6.73818 13.5771 9.0951C13.5771 11.452 15.4937 13.3672 17.85 13.3672C20.2062 13.3672 22.1235 11.4513 22.1235 9.0951C22.1235 6.73892 20.2062 4.823 17.85 4.823ZM17.85 11.298C16.6362 11.298 15.6485 10.3096 15.6485 9.09576C15.6485 7.88194 16.6363 6.89355 17.85 6.89355C19.0637 6.89355 20.0515 7.88194 20.0515 9.09576C20.0515 10.3096 19.0638 11.298 17.85 11.298Z" fill="black"/>
<path d="M23.8072 20.7193H23.1828L22.0971 14.7476C21.9515 13.9475 21.2543 13.3672 20.4402 13.3672H17.8503H15.261C14.4469 13.3672 13.7497 13.9475 13.6041 14.7476L12.3091 21.8722C12.2201 22.3643 12.3525 22.8669 12.673 23.2505C12.9936 23.6362 13.4647 23.8553 13.9659 23.8553H14.4342L14.876 29.4294C14.9467 30.2988 15.6837 30.9778 16.5546 30.9778H19.1446C20.0175 30.9778 20.7546 30.2988 20.8232 29.4294L21.0066 27.1222H23.8066C24.9665 27.1222 25.9066 26.1821 25.9066 25.0222V22.82C25.9072 21.6594 24.9671 20.7193 23.8072 20.7193ZM18.3409 22.8193V25.0215C18.3409 25.6026 18.5775 26.1282 18.959 26.5083L18.7868 28.9079H16.9143L16.348 21.7833H14.4315L15.5851 15.4364H16.8143V18.9882C16.8143 19.5601 17.2791 20.0235 17.8496 20.0235C18.4201 20.0235 18.8863 19.5601 18.8863 18.9882V15.4364H20.1156L21.0752 20.7193H20.4403C19.281 20.7193 18.3409 21.6594 18.3409 22.8193ZM23.8072 25.0215H20.4409V22.8193H23.8072V25.0215Z" fill="black"/>
</svg>
