<svg width="14" height="9" viewBox="0 0 14 9" fill="none" xmlns="http://www.w3.org/2000/svg">
<path d="M13.2782 2.98231L10.0838 0.209356C9.92936 0.0753053 9.71993 0 9.50157 0C9.28321 0 9.07378 0.0753053 8.91935 0.209356C8.76497 0.343447 8.67824 0.52529 8.67824 0.714895C8.67824 0.9045 8.76497 1.08634 8.91935 1.22043L11.8469 3.76386H0.823502C0.605096 3.76386 0.395635 3.83919 0.241198 3.97329C0.0867616 4.10739 0 4.28926 0 4.47891C0 4.66855 0.0867616 4.85042 0.241198 4.98452C0.395635 5.11862 0.605096 5.19395 0.823502 5.19395H11.8971L8.91935 7.77885C8.84279 7.84526 8.78205 7.92412 8.74061 8.01093C8.69916 8.09773 8.67783 8.19078 8.67783 8.28475C8.67783 8.37872 8.69916 8.47176 8.74061 8.55857C8.78205 8.64537 8.84279 8.72424 8.91935 8.79064C9.07378 8.9247 9.28321 9 9.50157 9C9.71993 9 9.92936 8.9247 10.0838 8.79064L13.279 6.01697C13.7409 5.61381 14.0002 5.0682 14 4.49949C13.9998 3.93079 13.7403 3.38529 13.2782 2.98231Z" fill="white"/>
</svg>
