<svg width="18" height="16" viewBox="0 0 18 16" fill="none" xmlns="http://www.w3.org/2000/svg">
<path d="M16.9936 3.51484C16.733 2.90528 16.3571 2.35291 15.8871 1.88864C15.4168 1.42298 14.8622 1.05293 14.2536 0.798611C13.6225 0.533848 12.9456 0.398328 12.2623 0.399916C11.3035 0.399916 10.3682 0.665058 9.55529 1.16588C9.36082 1.28569 9.17608 1.41727 9.00106 1.56065C8.82604 1.41727 8.6413 1.28569 8.44683 1.16588C7.63396 0.665058 6.69857 0.399916 5.73985 0.399916C5.0495 0.399916 4.38053 0.533469 3.74851 0.798611C3.13789 1.05393 2.58755 1.4212 2.11499 1.88864C1.64438 2.35239 1.26844 2.90489 1.00848 3.51484C0.738169 4.14922 0.600098 4.82287 0.600098 5.51617C0.600098 6.17019 0.732335 6.8517 0.994865 7.54499C1.21461 8.12438 1.52965 8.72537 1.93219 9.33225C2.57005 10.2926 3.44709 11.2943 4.5361 12.3097C6.34075 13.9929 8.1279 15.1555 8.20375 15.2027L8.66463 15.5012C8.86882 15.6328 9.13135 15.6328 9.33554 15.5012L9.79643 15.2027C9.87227 15.1536 11.6575 13.9929 13.4641 12.3097C14.5531 11.2943 15.4301 10.2926 16.068 9.33225C16.4705 8.72537 16.7875 8.12438 17.0053 7.54499C17.2678 6.8517 17.4001 6.17019 17.4001 5.51617C17.402 4.82287 17.264 4.14922 16.9936 3.51484V3.51484ZM9.00106 13.9477C9.00106 13.9477 2.07804 9.46776 2.07804 5.51617C2.07804 3.51484 3.7174 1.89257 5.73985 1.89257C7.1614 1.89257 8.39432 2.69388 9.00106 3.86443C9.6078 2.69388 10.8407 1.89257 12.2623 1.89257C14.2847 1.89257 15.9241 3.51484 15.9241 5.51617C15.9241 9.46776 9.00106 13.9477 9.00106 13.9477Z" fill="#282739"/>
</svg>
