<svg width="31" height="31" viewBox="0 0 31 31" fill="none" xmlns="http://www.w3.org/2000/svg">
<path d="M0 15.5C0 24.0604 6.93959 31 15.5 31C24.0604 31 31 24.0604 31 15.5C31 6.93959 24.0604 0 15.5 0C6.93959 0 0 6.93959 0 15.5Z" fill="#7D3DAF"/>
<path d="M23.7178 11.8087L23.7129 11.7892C23.3189 10.1962 21.5424 8.48693 19.9111 8.13132L19.8927 8.12753C17.254 7.62416 14.5786 7.62416 11.9405 8.12753L11.9215 8.13132C10.2907 8.48693 8.51426 10.1962 8.11968 11.7892L8.11535 11.8087C7.62822 14.0332 7.62822 16.2892 8.11535 18.5138L8.11968 18.5333C8.49743 20.0582 10.1416 21.689 11.712 22.1375V23.9157C11.712 24.5592 12.4963 24.8753 12.9423 24.4109L14.7439 22.5382C15.1347 22.5601 15.5256 22.5722 15.9166 22.5722C17.2448 22.5722 18.5736 22.4467 19.8927 22.195L19.9111 22.1912C21.5424 21.8356 23.3189 20.1263 23.7129 18.5333L23.7178 18.5139C24.2049 16.2892 24.2049 14.0332 23.7178 11.8087ZM22.2921 18.1912C22.029 19.2304 20.6802 20.5224 19.6085 20.7611C18.2055 21.0279 16.7914 21.142 15.3787 21.1028C15.3506 21.1021 15.3236 21.1129 15.304 21.1331C15.1035 21.3389 13.9886 22.4834 13.9886 22.4834L12.5894 23.9194C12.4871 24.026 12.3074 23.9535 12.3074 23.8063V20.8606C12.3074 20.812 12.2727 20.7706 12.2249 20.7612C12.2246 20.7612 12.2243 20.7611 12.2241 20.7611C11.1524 20.5224 9.80409 19.2304 9.5405 18.1912C9.10207 16.1804 9.10207 14.142 9.5405 12.1312C9.80409 11.092 11.1524 9.79998 12.2241 9.56128C14.6744 9.09525 17.1588 9.09525 19.6085 9.56128C20.6808 9.79998 22.029 11.092 22.2921 12.1312C22.731 14.142 22.731 16.1804 22.2921 18.1912Z" fill="white"/>
<path d="M18.2482 19.5512C18.0834 19.5012 17.9264 19.4676 17.7806 19.4071C16.2696 18.7802 14.879 17.9714 13.7774 16.7317C13.151 16.0267 12.6608 15.2307 12.2463 14.3884C12.0498 13.989 11.8842 13.5739 11.7153 13.1615C11.5614 12.7854 11.7881 12.3969 12.0269 12.1136C12.2509 11.8476 12.5392 11.6441 12.8514 11.4941C13.0951 11.3771 13.3354 11.4446 13.5134 11.6511C13.8981 12.0976 14.2515 12.567 14.5377 13.0846C14.7137 13.403 14.6654 13.7922 14.3465 14.0088C14.269 14.0615 14.1983 14.1233 14.1261 14.1828C14.0628 14.2349 14.0032 14.2876 13.9598 14.3582C13.8804 14.4873 13.8767 14.6396 13.9277 14.78C14.321 15.8608 14.9839 16.7012 16.0717 17.1539C16.2458 17.2263 16.4206 17.3106 16.6212 17.2873C16.957 17.248 17.0658 16.8796 17.3011 16.6872C17.5311 16.4991 17.8251 16.4966 18.0729 16.6534C18.3207 16.8103 18.561 16.9786 18.7998 17.1488C19.0342 17.3158 19.2676 17.4793 19.4839 17.6697C19.6918 17.8528 19.7634 18.093 19.6463 18.3415C19.432 18.7966 19.1201 19.1752 18.6702 19.4169C18.5431 19.485 18.3914 19.5071 18.2482 19.5512C18.0834 19.5011 18.3914 19.5071 18.2482 19.5512Z" fill="white"/>
<path d="M15.9215 10.9736C17.8979 11.029 19.5212 12.3406 19.8691 14.2946C19.9284 14.6275 19.9495 14.9679 19.9758 15.3058C19.9869 15.4479 19.9065 15.583 19.7531 15.5848C19.5946 15.5867 19.5233 15.4542 19.5131 15.3121C19.4927 15.0309 19.4786 14.7484 19.4398 14.4695C19.2352 12.9972 18.0612 11.7791 16.5958 11.5177C16.3753 11.4784 16.1495 11.468 15.9262 11.4446C15.785 11.4298 15.6 11.4212 15.5687 11.2457C15.5425 11.0985 15.6667 10.9813 15.8068 10.9738C15.8449 10.9717 15.8832 10.9734 15.9215 10.9736C17.8979 11.029 15.8832 10.9734 15.9215 10.9736Z" fill="white"/>
<path d="M18.9241 14.8671C18.9209 14.8918 18.9191 14.9498 18.9047 15.0044C18.8522 15.2029 18.5514 15.2277 18.4821 15.0274C18.4616 14.968 18.4585 14.9004 18.4584 14.8364C18.4577 14.4178 18.3667 13.9996 18.1556 13.6354C17.9386 13.2611 17.6071 12.9464 17.2183 12.756C16.9832 12.6409 16.7289 12.5693 16.4712 12.5267C16.3585 12.508 16.2447 12.4967 16.1315 12.481C15.9944 12.4619 15.9211 12.3745 15.9276 12.2394C15.9337 12.1127 16.0263 12.0216 16.1643 12.0294C16.6179 12.0552 17.056 12.1532 17.4592 12.3667C18.2792 12.801 18.7476 13.4864 18.8843 14.4017C18.8905 14.4432 18.9005 14.4842 18.9036 14.5259C18.9113 14.6286 18.9162 14.7315 18.9241 14.8671C18.9209 14.8918 18.9162 14.7315 18.9241 14.8671Z" fill="white"/>
<path d="M17.6954 14.8194C17.53 14.8223 17.4415 14.7308 17.4245 14.5792C17.4126 14.4735 17.4032 14.3664 17.378 14.2635C17.3283 14.061 17.2207 13.8733 17.0503 13.7492C16.9699 13.6906 16.8787 13.6479 16.7832 13.6203C16.6619 13.5853 16.536 13.5949 16.4149 13.5653C16.2835 13.5331 16.2108 13.4266 16.2315 13.3033C16.2503 13.1911 16.3595 13.1036 16.4821 13.1124C17.2483 13.1678 17.796 13.5639 17.8742 14.466C17.8797 14.5296 17.8862 14.5969 17.872 14.6578C17.8478 14.762 17.7707 14.8143 17.6954 14.8194C17.53 14.8223 17.7707 14.8143 17.6954 14.8194Z" fill="white"/>
</svg>
