<svg width="31" height="31" viewBox="0 0 31 31" fill="none" xmlns="http://www.w3.org/2000/svg">
<path d="M0 15.5C0 24.0604 6.93959 31 15.5 31C24.0604 31 31 24.0604 31 15.5C31 6.93959 24.0604 0 15.5 0C6.93959 0 0 6.93959 0 15.5Z" fill="#1BD741"/>
<path d="M6.78101 24.5674L8.0253 20.1481C7.22515 18.7887 6.80386 17.2421 6.80386 15.6533C6.80386 10.7612 10.7838 6.78125 15.6759 6.78125C20.568 6.78125 24.5479 10.7612 24.5479 15.6533C24.5479 20.5453 20.568 24.5253 15.6759 24.5253C14.1516 24.5253 12.6589 24.1351 11.3385 23.3942L6.78101 24.5674ZM11.5715 21.7802L11.8431 21.946C12.9943 22.6488 14.3197 23.0203 15.6759 23.0203C19.7381 23.0203 23.0429 19.7155 23.0429 15.6533C23.0429 11.5911 19.7381 8.28624 15.6759 8.28624C11.6137 8.28624 8.30885 11.5911 8.30885 15.6533C8.30885 17.0687 8.71113 18.4432 9.4721 19.6282L9.65498 19.913L8.93844 22.458L11.5715 21.7802Z" fill="white"/>
<path d="M13.1843 11.5238L12.6086 11.4924C12.4277 11.4825 12.2504 11.5429 12.1137 11.6617C11.8346 11.904 11.3884 12.3726 11.2513 12.9832C11.0469 13.8936 11.3628 15.0084 12.1803 16.1232C12.9979 17.238 14.5214 19.0217 17.2155 19.7835C18.0837 20.029 18.7666 19.8635 19.2935 19.5264C19.7108 19.2595 19.9985 18.831 20.1022 18.3466L20.1941 17.9173C20.2233 17.7808 20.154 17.6424 20.0273 17.584L18.0817 16.6872C17.9554 16.629 17.8056 16.6658 17.7206 16.7758L16.9568 17.766C16.8991 17.8408 16.8004 17.8705 16.7112 17.8392C16.1881 17.6553 14.436 16.9215 13.4746 15.0696C13.4329 14.9893 13.4432 14.8918 13.5024 14.8233L14.2323 13.9788C14.3069 13.8926 14.3258 13.7713 14.2809 13.6665L13.4423 11.7044C13.3976 11.6 13.2976 11.5299 13.1843 11.5238Z" fill="white"/>
</svg>
