<svg width="56" height="56" viewBox="0 0 56 56" fill="none" xmlns="http://www.w3.org/2000/svg">
<path d="M38.5 0H17.5C7.8365 0 0 7.8365 0 17.5V38.5C0 48.1635 7.8365 56 17.5 56H38.5C48.1635 56 56 48.1635 56 38.5V17.5C56 7.8365 48.1635 0 38.5 0ZM50.75 38.5C50.75 45.255 45.255 50.75 38.5 50.75H17.5C10.745 50.75 5.25 45.255 5.25 38.5V17.5C5.25 10.745 10.745 5.25 17.5 5.25H38.5C45.255 5.25 50.75 10.745 50.75 17.5V38.5Z" fill="url(#paint0_linear_127_2987)"/>
<path d="M28 14C20.2685 14 14 20.2685 14 28C14 35.7315 20.2685 42 28 42C35.7315 42 42 35.7315 42 28C42 20.2685 35.7315 14 28 14ZM28 36.75C23.177 36.75 19.25 32.823 19.25 28C19.25 23.1735 23.177 19.25 28 19.25C32.823 19.25 36.75 23.1735 36.75 28C36.75 32.823 32.823 36.75 28 36.75Z" fill="url(#paint1_linear_127_2987)"/>
<path d="M43.0498 14.8156C44.0801 14.8156 44.9153 13.9804 44.9153 12.9502C44.9153 11.9199 44.0801 11.0847 43.0498 11.0847C42.0195 11.0847 41.1843 11.9199 41.1843 12.9502C41.1843 13.9804 42.0195 14.8156 43.0498 14.8156Z" fill="url(#paint2_linear_127_2987)"/>
<defs>
<linearGradient id="paint0_linear_127_2987" x1="5.12627" y1="50.8741" x2="50.8737" y2="5.12592" gradientUnits="userSpaceOnUse">
<stop stop-color="#FFC107"/>
<stop offset="0.507" stop-color="#F44336"/>
<stop offset="0.99" stop-color="#9C27B0"/>
</linearGradient>
<linearGradient id="paint1_linear_127_2987" x1="18.1008" y1="37.8992" x2="37.8992" y2="18.1008" gradientUnits="userSpaceOnUse">
<stop stop-color="#FFC107"/>
<stop offset="0.507" stop-color="#F44336"/>
<stop offset="0.99" stop-color="#9C27B0"/>
</linearGradient>
<linearGradient id="paint2_linear_127_2987" x1="41.7309" y1="14.2695" x2="44.3688" y2="11.6312" gradientUnits="userSpaceOnUse">
<stop stop-color="#FFC107"/>
<stop offset="0.507" stop-color="#F44336"/>
<stop offset="0.99" stop-color="#9C27B0"/>
</linearGradient>
</defs>
</svg>
