<svg width="69" height="44" viewBox="0 0 69 44" fill="none" xmlns="http://www.w3.org/2000/svg">
<path d="M1.50099 37.1748C2.90974 41.6646 7.21937 42.4861 7.50687 42.6437C14.5995 44.3797 54.355 44.3849 61.554 42.6437C66.4846 41.3624 67.3903 37.4331 67.5599 37.1748C69.4373 28.2003 69.5609 16.5004 67.4736 6.31686L67.5599 6.82319C66.1511 2.33336 61.8415 1.51186 61.554 1.35427C54.5563 -0.353309 14.6972 -0.417893 7.50687 1.35427C2.57624 2.63819 1.67062 6.56486 1.50099 6.82319C-0.508631 16.2549 -0.609256 27.0765 1.50099 37.1748ZM27.6232 31.432V12.5918L45.638 22.0261L27.6232 31.432Z" fill="#E53935"/>
</svg>
