<svg width="73" height="39" viewBox="0 0 73 39" fill="none" xmlns="http://www.w3.org/2000/svg">
<path d="M60.5769 21.7921C59.3967 20.462 59.7343 19.8702 60.5769 18.6813C60.5921 18.6677 70.3349 6.65327 71.3387 2.57879L71.3448 2.57607C71.8436 1.09123 71.3448 0 68.9326 0H60.951C58.9191 0 57.9823 0.936507 57.4804 1.98431C57.4804 1.98431 53.4166 10.6653 47.6676 16.2925C45.8121 17.9185 44.9543 18.4397 43.9414 18.4397C43.4426 18.4397 42.6669 17.9185 42.6669 16.4337V2.57607C42.6669 0.795352 42.0981 0 40.416 0H27.8657C26.5912 0 25.8338 0.830641 25.8338 1.60428C25.8338 3.2927 28.7082 3.68088 29.0063 8.43128V18.7383C29.0063 20.9968 28.547 21.4121 27.528 21.4121C24.8148 21.4121 18.2293 12.6958 14.3267 2.71994C13.5389 0.784494 12.7694 0.00271432 10.7222 0.00271432H2.73759C0.459307 0.00271432 0 0.939221 0 1.98702C0 3.83832 2.71326 13.0432 12.6173 25.2042C19.2179 33.5052 28.5136 38.0032 36.9697 38.0032C42.0525 38.0032 42.673 37.0042 42.673 35.2859C42.673 27.3541 42.2137 26.6049 44.7597 26.6049C45.9399 26.6049 47.9718 27.1261 52.7169 31.13C58.1404 35.8777 59.0317 38.0032 62.0674 38.0032H70.049C72.3242 38.0032 73.477 37.0042 72.8139 35.0335C71.2961 30.8884 61.0392 22.3622 60.5769 21.7921Z" fill="#4B729F"/>
</svg>
