<svg width="133" height="40" viewBox="0 0 133 40" fill="none" xmlns="http://www.w3.org/2000/svg">
<g clip-path="url(#clip0_379_1610)">
<path d="M1.69072 39.7402C2.52238 37.6792 3.39125 30.0882 3.39125 27.2788C3.39125 24.7866 2.38647 23.1948 1.69072 23.1948C0.994982 23.1948 -0.00170898 24.7802 -0.00170898 27.2788C-9.09795e-05 30.085 0.870395 37.6744 1.69072 39.7402Z" fill="#0468FF"/>
<path d="M8.1725 0C7.00753 1.91359 5.04004 6.36544 5.04004 6.36544C8.06409 4.91161 11.1464 6.45263 11.1464 6.45263C11.1464 6.45263 9.26951 1.92628 8.1725 0Z" fill="#FF1820"/>
<path d="M11.8146 8.39295C11.662 7.91762 11.3989 7.48347 11.046 7.12462C10.6593 6.75522 9.39245 6.49996 8.0673 6.46191C6.74863 6.49996 5.47849 6.7568 5.09503 7.12462C4.73882 7.4826 4.47239 7.9168 4.31677 8.39295C2.51107 13.4029 2.08716 17.9784 2.42694 21.9562C3.82004 22.5016 4.80055 24.6022 4.80055 27.2784C4.80055 28.0251 4.72612 29.3696 4.58212 30.9391C5.13665 32.3112 5.79597 33.6404 6.55447 34.9154H6.63375C6.59654 34.362 6.58359 33.9911 6.58359 33.9768C6.58359 32.458 7.23888 31.3117 8.10613 31.3117C8.97338 31.3117 9.62706 32.458 9.62706 33.9768C9.62706 33.9911 9.61412 34.3605 9.57367 34.9154C10.2799 33.7397 10.9011 32.517 11.4328 31.2562C11.271 29.5567 11.1787 28.0854 11.1787 27.2927C11.1787 24.5166 12.2385 22.3557 13.7222 21.9134C14.0394 17.9387 13.6171 13.3775 11.8146 8.39295ZM8.10775 17.7168C6.77937 17.7168 5.7034 16.8004 5.7034 15.6684C5.7034 14.5364 6.77937 9.87056 8.10775 9.87056C9.43614 9.87056 10.5105 14.5412 10.5105 15.6684C10.5105 16.7956 9.43614 17.7168 8.10775 17.7168Z" fill="#FFC200"/>
<path d="M14.287 39.7402C15.1105 37.6792 15.9843 30.0882 15.9843 27.2788C15.9843 24.7866 14.9827 23.1948 14.287 23.1948C13.5912 23.1948 12.5913 24.7802 12.5913 27.2788C12.5913 30.085 13.465 37.6744 14.287 39.7402Z" fill="#0468FF"/>
<path d="M8.1079 40.0001C8.50917 38.9664 8.91691 35.3295 8.91691 33.9755C8.91691 32.7722 8.43151 31.9985 8.1079 31.9985C7.7843 31.9985 7.2989 32.7722 7.2989 33.9755C7.29243 35.3295 7.70988 38.9712 8.1079 40.0001Z" fill="#0468FF"/>
<path d="M36.9326 16.2932C36.1236 15.5877 35.0703 15.231 33.7646 15.231H30.8732C29.9542 15.231 29.4866 15.7066 29.4866 16.6578V26.4573C29.4866 27.3927 29.8636 27.8667 30.6014 27.8667C31.3392 27.8667 31.734 27.4054 31.734 26.4826V23.4069H33.9992C35.2256 23.4069 36.232 23.028 37.0054 22.2654C37.7789 21.5029 38.1688 20.5215 38.1688 19.3118C38.1753 18.0435 37.7546 17.0336 36.9326 16.2932ZM35.1625 20.856C34.7354 21.2444 34.1675 21.4363 33.4733 21.4363H31.7388V17.227H33.5186C35.0477 17.227 35.8243 17.9087 35.8243 19.2801C35.8194 19.9476 35.5994 20.4755 35.1625 20.856Z" fill="#FF1820"/>
<path d="M52.1433 26.2402L48.4721 16.3535C48.1485 15.4958 47.6016 15.0693 46.8298 15.0693C46.058 15.0693 45.5225 15.537 45.1762 16.4708L41.4548 26.2655C41.3742 26.4615 41.333 26.6709 41.3334 26.8823C41.3293 27.0153 41.3544 27.1477 41.4068 27.2705C41.4593 27.3933 41.538 27.5036 41.6376 27.5941C41.8454 27.7752 42.1153 27.8726 42.3932 27.8668C42.8981 27.8668 43.2605 27.5592 43.4757 26.9504L44.1892 24.9148H49.3474L50.0351 26.9029C50.2648 27.5481 50.6353 27.8731 51.1677 27.8731C51.4502 27.8808 51.7255 27.7847 51.9395 27.6036C52.0461 27.5181 52.1309 27.4093 52.1871 27.286C52.2433 27.1627 52.2693 27.0283 52.2631 26.8934C52.2543 26.6712 52.214 26.4514 52.1433 26.2402ZM44.8623 22.9901L46.7117 17.717C46.7461 17.6613 46.7759 17.603 46.8007 17.5426L48.684 22.9917L44.8623 22.9901Z" fill="#FF1820"/>
<path d="M63.3854 25.7914L60.2206 22.3542C62.5117 22.1914 63.6556 21.0574 63.6524 18.9519C63.6524 17.7438 63.2284 16.8053 62.3774 16.1521C61.5943 15.5433 60.5765 15.231 59.3032 15.231H56.8066C55.8876 15.231 55.4248 15.7066 55.4248 16.6673V26.4969C55.4248 27.4402 55.7953 27.9111 56.5428 27.9111C57.2904 27.9111 57.6755 27.4434 57.6755 26.5096V22.4034C57.7029 22.437 57.7338 22.4678 57.7677 22.4953L61.7997 27.2325C62.1864 27.6828 62.5667 27.9063 62.9323 27.9063C63.2025 27.9134 63.4646 27.816 63.6621 27.6352C63.76 27.5468 63.8373 27.4387 63.8887 27.3183C63.94 27.1979 63.9643 27.0681 63.9598 26.9377C63.9565 26.5714 63.7672 26.1925 63.3854 25.7914ZM57.6674 20.8893V17.227H59.2854C60.6682 17.227 61.3596 17.8374 61.3596 19.0581C61.3596 20.336 60.6089 20.9828 59.1074 20.9828C58.6254 20.9985 58.143 20.9671 57.6674 20.8893Z" fill="#FF1820"/>
<path d="M75.6983 16.2394C75.6983 15.5672 75.2297 15.2305 74.2923 15.2295H68.5354C67.5889 15.2295 67.1245 15.5672 67.1245 16.2394C67.1245 16.9116 67.5889 17.2414 68.5176 17.2414H70.2893V26.4622C70.2893 27.3976 70.655 27.8716 71.3863 27.8716C72.15 27.8716 72.5384 27.396 72.5384 26.4622V17.2414H74.3182C75.2469 17.2414 75.6983 16.9053 75.6983 16.2394Z" fill="#FF1820"/>
<path d="M88.3705 16.0886C88.3758 15.9603 88.3529 15.8324 88.3035 15.7134C88.2541 15.5945 88.1793 15.4873 88.0842 15.399C87.9885 15.3094 87.8755 15.2394 87.7519 15.1931C87.6282 15.1468 87.4964 15.1252 87.3641 15.1294C86.937 15.1294 86.5551 15.372 86.2154 15.8698L83.6168 19.8064L81.028 15.8793C80.6915 15.3752 80.3129 15.1294 79.9116 15.1294C79.642 15.1226 79.3799 15.2167 79.1786 15.3926C79.0779 15.4727 78.9972 15.5744 78.9428 15.6898C78.8884 15.8053 78.8617 15.9314 78.8647 16.0585C78.8647 16.3122 79.0055 16.6419 79.2984 17.051L82.4988 21.8452V26.4429C82.4988 27.4101 82.8774 27.8904 83.6314 27.8904C84.3854 27.8904 84.7527 27.4053 84.7527 26.4382V21.8405L87.9402 17.0224C88.233 16.6213 88.3705 16.3106 88.3705 16.0886Z" fill="#FF1820"/>
<path d="M119.533 22.0358C119.533 21.4508 119.422 21.0196 119.21 20.75C118.998 20.4805 118.585 20.3458 118.003 20.3458H115.199C114.287 20.3458 113.832 20.6739 113.833 21.3303C113.833 21.9835 114.286 22.3038 115.199 22.3038H117.173V22.9173C117.173 23.8258 116.881 24.5424 116.304 25.0814C115.726 25.6204 114.961 25.8741 114.027 25.8741C112.895 25.8741 111.997 25.3985 111.353 24.4266C110.783 23.5974 110.506 22.5907 110.506 21.4143C110.506 20.238 110.783 19.2645 111.353 18.4544C111.637 18.0147 112.033 17.6551 112.502 17.411C112.971 17.1669 113.496 17.0467 114.027 17.0624C114.585 17.0507 115.14 17.1472 115.66 17.3462C116.174 17.5609 116.659 17.8379 117.103 18.1706C117.275 18.2906 117.482 18.3524 117.694 18.3466C118.341 18.3466 118.643 18.0184 118.643 17.362C118.646 17.1753 118.593 16.9919 118.491 16.8341C118.105 16.2332 117.454 15.7734 116.524 15.4564C115.738 15.196 114.913 15.0648 114.084 15.0679C112.264 15.0679 110.794 15.7021 109.693 16.9514C108.638 18.1426 108.112 19.6477 108.115 21.4667C108.115 23.2127 108.63 24.6993 109.66 25.9264C110.75 27.218 112.169 27.8643 113.919 27.8654C115.699 27.8654 117.074 27.3216 118.072 26.2277C119.04 25.1829 119.533 23.7909 119.533 22.0358Z" fill="#FF1820"/>
<path d="M131.512 16.9577C130.426 15.7052 128.979 15.0742 127.157 15.0742C125.336 15.0742 123.902 15.7084 122.826 16.9767C121.803 18.1642 121.3 19.6561 121.3 21.4603C121.3 23.2645 121.808 24.7326 122.842 25.9153C123.934 27.1836 125.373 27.8178 127.157 27.8178C128.942 27.8178 130.393 27.1836 131.471 25.9343C132.495 24.7484 132.998 23.2597 132.998 21.4603C133 19.6328 132.504 18.132 131.512 16.9577ZM130.379 23.3231C130.184 24.0238 129.776 24.6501 129.211 25.1194C128.543 25.6312 127.7 25.8715 126.856 25.7903C126.013 25.7091 125.234 25.3127 124.68 24.6834C124.017 23.9272 123.69 22.8539 123.69 21.4539C123.69 20.0112 124.014 18.9173 124.68 18.1753C124.988 17.8276 125.369 17.5487 125.797 17.3576C126.225 17.1665 126.689 17.0676 127.159 17.0676C127.629 17.0676 128.094 17.1665 128.521 17.3576C128.949 17.5487 129.33 17.8276 129.638 18.1753C130.298 18.9141 130.626 20.0096 130.626 21.4539C130.641 22.0879 130.557 22.7204 130.377 23.3295L130.379 23.3231Z" fill="#FF1820"/>
<path d="M102.614 28.1108H93.6031V27.1342C93.5945 25.6264 94.1632 24.1703 95.1969 23.0533C95.3975 22.8282 95.823 22.4192 97.4168 21.2222C98.8277 20.152 99.1335 19.8857 99.1966 19.8318C99.8114 19.1342 100.114 18.454 100.114 17.7422C100.114 17.1223 99.9522 16.6546 99.6286 16.3153C99.4069 16.0743 99.0315 15.7684 98.1934 15.7684C97.5025 15.7684 97.0155 15.9871 96.645 16.458C96.2744 16.9289 96.0997 17.5171 96.0997 18.2575V19.2372H93.7504V18.2559C93.7504 16.8734 94.1565 15.7271 94.9444 14.8567C95.7712 13.9515 96.8537 13.4917 98.1594 13.4917C99.4652 13.4917 100.488 13.8849 101.285 14.6633C102.083 15.4418 102.478 16.4976 102.478 17.8104C102.478 19.2785 101.803 20.6165 100.473 21.7913L100.415 21.8405L97.3116 24.2091C96.7901 24.6467 96.3871 25.2038 96.1385 25.831H102.611L102.614 28.1108Z" fill="#0468FF"/>
</g>
<defs>
<clipPath id="clip0_379_1610">
<rect width="133" height="40" fill="white"/>
</clipPath>
</defs>
</svg>
