<svg width="46" height="46" viewBox="0 0 46 46" fill="none" xmlns="http://www.w3.org/2000/svg">
<path d="M35.9375 10.0625H38.8125" stroke="black" stroke-width="2" stroke-miterlimit="10" stroke-linecap="round" stroke-linejoin="round"/>
<path d="M23 27.3125V23C23 21.4187 21.7063 20.125 20.125 20.125H9.34375C6.6125 20.125 4.3125 17.825 4.3125 15.0938C4.3125 12.3625 6.6125 10.0625 9.34375 10.0625H10.0625V12.9375C10.0625 14.5188 11.3562 15.8125 12.9375 15.8125H33.0625C34.6438 15.8125 35.9375 14.5188 35.9375 12.9375V7.1875C35.9375 5.60625 34.6438 4.3125 33.0625 4.3125H12.9375C11.3562 4.3125 10.0625 5.60625 10.0625 7.1875V10.0625" stroke="black" stroke-width="2" stroke-miterlimit="10" stroke-linecap="round" stroke-linejoin="round"/>
<path d="M22.9999 41.6875C20.6999 41.6875 18.8311 39.675 19.1186 37.375L20.1249 27.3125H22.9999H25.8749L26.8811 37.375C27.1686 39.675 25.2999 41.6875 22.9999 41.6875Z" stroke="black" stroke-width="2" stroke-miterlimit="10" stroke-linecap="round" stroke-linejoin="round"/>
</svg>
