<svg width="18" height="18" viewBox="0 0 18 18" fill="none" xmlns="http://www.w3.org/2000/svg">
<path d="M17.633 7.76236C17.3186 5.47081 16.1068 3.39802 14.2641 1.99997C12.4214 0.601921 10.0988 -0.00686289 7.80728 0.307543C5.51573 0.621949 3.44294 1.83379 2.04489 3.67648C0.646843 5.51916 0.038059 7.84175 0.352465 10.1333C0.611494 12.0299 1.48308 13.79 2.83459 15.1457C4.18609 16.5014 5.94349 17.3784 7.83934 17.6432C8.22727 17.694 8.61809 17.7196 9.00934 17.7197C10.5901 17.7223 12.1412 17.291 13.4936 16.4727C13.5885 16.4155 13.6712 16.3402 13.7371 16.251C13.8029 16.1619 13.8505 16.0607 13.8772 15.9531C13.9039 15.8456 13.9091 15.7338 13.8926 15.6242C13.8761 15.5147 13.8382 15.4094 13.781 15.3145C13.7239 15.2196 13.6485 15.1368 13.5594 15.071C13.4702 15.0052 13.369 14.9576 13.2615 14.9309C13.0443 14.877 12.8145 14.9116 12.6228 15.027C11.6602 15.6048 10.5732 15.9437 9.45276 16.0153C8.33232 16.0869 7.21102 15.8892 6.18266 15.4387C5.15429 14.9881 4.24878 14.2979 3.54185 13.4256C2.83492 12.5534 2.34714 11.5246 2.11932 10.4252C1.89149 9.32584 1.93024 8.1879 2.23232 7.10657C2.5344 6.02525 3.09103 5.03198 3.85565 4.20986C4.62027 3.38775 5.57064 2.76068 6.62727 2.38113C7.6839 2.00158 8.81605 1.88057 9.92903 2.02823C10.9628 2.16568 11.9531 2.53137 12.828 3.0988C13.703 3.66623 14.4408 4.42119 14.988 5.30899C15.5352 6.19679 15.878 7.19518 15.9917 8.23184C16.1053 9.26851 15.987 10.3175 15.6452 11.3027C15.5565 11.5397 15.3962 11.7431 15.1867 11.8848C14.9771 12.0265 14.7286 12.0995 14.4757 12.0936C14.1424 12.0932 13.8229 11.9606 13.5872 11.7249C13.3516 11.4892 13.219 11.1697 13.2185 10.8364V5.62486C13.2185 5.40108 13.1296 5.18647 12.9714 5.02823C12.8132 4.87 12.5986 4.78111 12.3748 4.78111C12.151 4.78111 11.9364 4.87 11.7782 5.02823C11.6199 5.18647 11.531 5.40108 11.531 5.62486V5.63273C10.8914 5.14996 10.1275 4.85936 9.32868 4.79494C8.52989 4.73052 7.72928 4.89495 7.02054 5.26898C6.3118 5.643 5.72425 6.21116 5.32665 6.90695C4.92906 7.60275 4.73786 8.39739 4.77545 9.19789C4.81303 9.99839 5.07783 10.7716 5.53887 11.4271C5.99991 12.0826 6.63811 12.5932 7.37877 12.8992C8.11944 13.2052 8.93194 13.2938 9.72118 13.1549C10.5104 13.0159 11.2437 12.655 11.8353 12.1144C12.0744 12.6123 12.4488 13.0327 12.9158 13.3275C13.3828 13.6223 13.9235 13.7795 14.4757 13.7811C15.0794 13.7869 15.67 13.6046 16.1653 13.2594C16.6606 12.9143 17.0362 12.4235 17.2398 11.8551C17.6946 10.5415 17.8294 9.13846 17.633 7.76236ZM8.99978 11.5311C8.49914 11.5311 8.00975 11.3827 7.59349 11.1045C7.17723 10.8264 6.85279 10.431 6.66121 9.96852C6.46962 9.506 6.4195 8.99705 6.51716 8.50603C6.61483 8.01502 6.85591 7.56399 7.20991 7.20999C7.56391 6.85599 8.01494 6.61491 8.50595 6.51724C8.99697 6.41957 9.50592 6.4697 9.96844 6.66128C10.431 6.85287 10.8263 7.17731 11.1044 7.59357C11.3826 8.00983 11.531 8.49922 11.531 8.99986C11.5303 9.67096 11.2634 10.3144 10.7888 10.7889C10.3143 11.2634 9.67088 11.5304 8.99978 11.5311Z" fill="#0468FF"/>
</svg>
