<svg width="15" height="19" viewBox="0 0 15 19" fill="none" xmlns="http://www.w3.org/2000/svg">
<path d="M7.5 10.0938C6.56054 10.0938 5.64218 9.81517 4.86104 9.29323C4.07991 8.7713 3.47109 8.02945 3.11157 7.1615C2.75206 6.29355 2.65799 5.33848 2.84127 4.41707C3.02455 3.49566 3.47695 2.64929 4.14124 1.985C4.80554 1.3207 5.65191 0.868302 6.57332 0.685022C7.49473 0.501742 8.4498 0.595808 9.31775 0.955324C10.1857 1.31484 10.9275 1.92366 11.4495 2.70479C11.9714 3.48593 12.25 4.40429 12.25 5.34375C12.25 6.60353 11.7496 7.81171 10.8588 8.70251C9.96796 9.59331 8.75978 10.0938 7.5 10.0938ZM7.5 1.78125C6.79541 1.78125 6.10663 1.99019 5.52078 2.38164C4.93493 2.77309 4.47832 3.32948 4.20868 3.98044C3.93904 4.6314 3.86849 5.3477 4.00595 6.03876C4.14341 6.72982 4.48271 7.3646 4.98093 7.86282C5.47916 8.36104 6.11394 8.70034 6.80499 8.8378C7.49605 8.97526 8.21235 8.90471 8.86331 8.63507C9.51427 8.36544 10.0707 7.90882 10.4621 7.32297C10.8536 6.73712 11.0625 6.04835 11.0625 5.34375C11.0625 4.39892 10.6872 3.49278 10.0191 2.82468C9.35097 2.15659 8.44484 1.78125 7.5 1.78125Z" fill="#101820"/>
<path d="M11.6562 18.4062H3.34375C2.55639 18.4062 1.80128 18.0934 1.24453 17.5366C0.687778 16.9799 0.375 16.2248 0.375 15.4374V13.0624C0.375018 12.9594 0.401851 12.8581 0.452862 12.7686C0.503873 12.6791 0.577304 12.6043 0.665937 12.5518L3.63469 10.7705C3.76863 10.71 3.92027 10.7013 4.06026 10.7461C4.20025 10.7909 4.31864 10.8861 4.39252 11.0132C4.4664 11.1402 4.49052 11.2902 4.46021 11.434C4.4299 11.5779 4.34731 11.7053 4.22844 11.7918L1.5625 13.4009V15.4374C1.5625 15.9098 1.75017 16.3629 2.08422 16.697C2.41827 17.031 2.87133 17.2187 3.34375 17.2187H11.6562C12.1287 17.2187 12.5817 17.031 12.9158 16.697C13.2498 16.3629 13.4375 15.9098 13.4375 15.4374V13.4009L10.7597 11.7918C10.684 11.7576 10.6163 11.7079 10.561 11.6458C10.5057 11.5838 10.4641 11.5109 10.4387 11.4318C10.4134 11.3527 10.405 11.2691 10.4139 11.1865C10.4229 11.1039 10.4492 11.0241 10.4909 10.9523C10.5327 10.8805 10.589 10.8182 10.6564 10.7695C10.7237 10.7209 10.8005 10.6869 10.8818 10.6697C10.9631 10.6526 11.0471 10.6527 11.1283 10.6701C11.2096 10.6875 11.2862 10.7217 11.3534 10.7705L14.3222 12.5518C14.413 12.6028 14.4888 12.6769 14.542 12.7665C14.5951 12.8562 14.6238 12.9582 14.625 13.0624V15.4374C14.625 16.2248 14.3122 16.9799 13.7555 17.5366C13.1987 18.0934 12.4436 18.4062 11.6562 18.4062Z" fill="#101820"/>
</svg>
