<svg width="24" height="24" viewBox="0 0 24 24" fill="none" xmlns="http://www.w3.org/2000/svg">
<path d="M5.5233 16.0874C5.67143 16.2321 5.84249 16.3512 6.02955 16.4399C6.09266 17.6891 6.36127 18.9194 6.82455 20.0812C7.02012 20.5454 7.12208 21.0437 7.12455 21.5474V22.8749C7.12455 23.1733 7.24308 23.4594 7.45405 23.6704C7.66503 23.8814 7.95118 23.9999 8.24955 23.9999H12.7495C13.0479 23.9999 13.3341 23.8814 13.545 23.6704C13.756 23.4594 13.8745 23.1733 13.8745 22.8749C13.8751 22.2325 14.0947 21.6095 14.497 21.1087L16.9458 18.0562C16.987 18.0112 17.0245 17.9624 17.062 17.9174C17.0996 17.8724 17.1371 17.8387 17.1708 17.7937C17.2045 17.7487 17.2421 17.6924 17.2758 17.6399L17.3695 17.5049C17.4033 17.4487 17.4258 17.3924 17.4558 17.3399C17.4858 17.2874 17.5083 17.2424 17.5308 17.1937C17.5533 17.1449 17.5795 17.0737 17.602 17.0137L17.6583 16.8674C17.6583 16.8037 17.692 16.7399 17.7071 16.6724C17.7221 16.6049 17.7333 16.5787 17.7445 16.5299C17.7558 16.4812 17.7445 16.3912 17.7708 16.3237C17.797 16.2562 17.7708 16.2299 17.7933 16.1812C17.8158 16.1324 17.7933 16.0237 17.7933 15.9449C17.7933 15.8662 17.7933 15.8699 17.7933 15.8287C17.7895 15.7106 17.7782 15.5928 17.7596 15.4762L17.7295 15.2962L17.3545 12.8662C17.3126 12.6074 17.237 12.3553 17.1295 12.1162C17.1236 12.1005 17.116 12.0854 17.107 12.0712C16.772 11.3628 16.173 10.8137 15.4383 10.5412L14.2683 10.1249L15.5695 8.84993L16.8745 7.49993C16.9186 7.45735 16.9723 7.42621 17.0312 7.40921C17.09 7.39221 17.1521 7.38989 17.2121 7.40243C18.131 7.59665 19.0894 7.43895 19.8977 6.96052C20.7059 6.48208 21.3052 5.71775 21.5771 4.81868C21.7252 4.33339 21.7724 3.82291 21.7158 3.31868C21.6998 3.17761 21.6441 3.04399 21.5551 2.93333C21.4662 2.82268 21.3477 2.73955 21.2133 2.69359C21.079 2.64764 20.9344 2.64075 20.7963 2.67374C20.6582 2.70672 20.5324 2.77822 20.4333 2.87993L19.3908 3.94493C19.3559 3.98007 19.3145 4.00797 19.2688 4.02701C19.2231 4.04605 19.1741 4.05585 19.1245 4.05585C19.075 4.05585 19.026 4.04605 18.9803 4.02701C18.9346 4.00797 18.8932 3.98007 18.8583 3.94493L17.8083 2.89868C17.7726 2.86275 17.7446 2.81997 17.7259 2.77293C17.7072 2.72588 17.6983 2.67553 17.6996 2.62493C17.6993 2.57468 17.7091 2.52489 17.7284 2.47851C17.7477 2.43212 17.7762 2.3901 17.812 2.35493L18.8583 1.28993C18.9583 1.18978 19.0279 1.0634 19.0591 0.925376C19.0902 0.787355 19.0817 0.643326 19.0345 0.509927C18.9868 0.37928 18.9036 0.264495 18.7943 0.178404C18.6851 0.0923134 18.554 0.0383086 18.4158 0.022427C17.9113 -0.0304008 17.4013 0.0180464 16.9158 0.164927C16.021 0.440455 15.2616 1.04075 14.787 1.84779C14.3123 2.65483 14.1567 3.61024 14.3508 4.52618C14.3648 4.58812 14.3629 4.65262 14.3452 4.71363C14.3275 4.77463 14.2946 4.83013 14.2495 4.87493L12.067 7.01243C11.894 6.78461 11.6595 6.61101 11.3911 6.51211C11.1227 6.4132 10.8316 6.39311 10.5521 6.45421C10.2726 6.5153 10.0165 6.65504 9.81382 6.85693C9.61116 7.05882 9.47046 7.31445 9.4083 7.59368C9.18515 7.53048 8.95039 7.51988 8.72246 7.56272C8.49453 7.60557 8.27964 7.70068 8.09467 7.84059C7.9097 7.98049 7.75969 8.16139 7.65643 8.36906C7.55317 8.57672 7.49947 8.8055 7.49955 9.03743C7.49839 9.21547 7.53018 9.39219 7.5933 9.55868H7.5033C7.26889 9.59616 7.04672 9.68874 6.85506 9.82882C6.6634 9.96889 6.50772 10.1525 6.40082 10.3644C6.29393 10.5764 6.23887 10.8107 6.24017 11.0481C6.24146 11.2855 6.29909 11.5191 6.4083 11.7299C6.03644 11.8462 5.72441 12.1026 5.53824 12.4448C5.35206 12.7871 5.30636 13.1883 5.4108 13.5637C5.11488 13.922 4.96254 14.3774 4.98332 14.8416C5.00411 15.3058 5.19654 15.7458 5.5233 16.0762V16.0874ZM5.83455 14.2762L5.90205 14.3249C5.93816 14.3593 5.97704 14.3907 6.0183 14.4187C6.09189 14.469 6.16967 14.5129 6.2508 14.5499L7.7508 15.1949C7.8175 15.2242 7.88648 15.2481 7.95705 15.2662L7.6533 15.5662C7.60563 15.6117 7.55419 15.6531 7.49955 15.6899L7.44705 15.7237L7.3233 15.7874L7.2558 15.8174L7.1133 15.8587H7.00455H6.94455C6.80005 15.8669 6.65525 15.8492 6.51705 15.8062C6.35171 15.7536 6.2013 15.6623 6.0783 15.5399C5.91307 15.3754 5.80303 15.1637 5.7634 14.9339C5.72376 14.7042 5.75649 14.4678 5.85705 14.2574L5.83455 14.2762ZM15.9145 11.6999C16.2783 12.0412 16.5184 12.4936 16.597 12.9862L17.0208 15.6112C17.0351 15.6993 17.0439 15.7882 17.047 15.8774C17.0589 16.1869 17.0074 16.4954 16.8959 16.7843C16.7843 17.0732 16.615 17.3362 16.3983 17.5574L16.372 17.5837L13.912 20.6249C13.399 21.2622 13.1209 22.0567 13.1245 22.8749C13.1245 22.9744 13.085 23.0698 13.0147 23.1401C12.9444 23.2104 12.849 23.2499 12.7495 23.2499H8.24955C8.15009 23.2499 8.05471 23.2104 7.98438 23.1401C7.91406 23.0698 7.87455 22.9744 7.87455 22.8749V21.5474C7.86764 20.9433 7.74014 20.3466 7.49955 19.7924C7.0958 18.7824 6.85041 17.7161 6.77205 16.6312H6.8358C6.91374 16.6293 6.99144 16.6217 7.0683 16.6087C7.09952 16.6105 7.13083 16.6105 7.16205 16.6087C7.25142 16.5924 7.33923 16.5686 7.42455 16.5374L7.5183 16.5112C7.61283 16.4717 7.70433 16.4253 7.79205 16.3724L7.85205 16.3424C7.95823 16.2735 8.05745 16.1944 8.1483 16.1062L10.252 14.0399C10.4942 13.974 10.7143 13.8446 10.8895 13.6649L10.912 13.6462C10.9671 13.5895 11.0185 13.5294 11.0658 13.4662C11.1881 13.2988 11.2726 13.1069 11.3133 12.9037C11.4305 12.9057 11.5475 12.8943 11.662 12.8699C11.9341 13.1362 12.262 13.3386 12.622 13.4624L13.5146 13.8037C13.6142 13.8385 13.7021 13.9005 13.7684 13.9827C13.8346 14.0649 13.8766 14.1639 13.8896 14.2687C13.9035 14.3972 13.8742 14.5268 13.8063 14.6368C13.7384 14.7468 13.6357 14.831 13.5146 14.8762C11.5045 15.6262 10.3683 16.9162 10.1395 18.6974C10.1244 18.7953 10.1487 18.8953 10.207 18.9754C10.2653 19.0555 10.353 19.1092 10.4508 19.1249H10.4995C10.5911 19.1257 10.6798 19.093 10.7489 19.0329C10.8179 18.9728 10.8626 18.8895 10.8745 18.7987C11.077 17.2987 12.0258 16.2412 13.7771 15.5849C14.0537 15.4781 14.2871 15.2823 14.4404 15.0285C14.5938 14.7746 14.6586 14.4771 14.6245 14.1824C14.5945 13.9478 14.5016 13.7257 14.3557 13.5396C14.2099 13.3534 14.0164 13.2102 13.7958 13.1249L12.892 12.7499C12.5664 12.6364 12.2783 12.4353 12.0595 12.1687C12.0116 12.1114 11.9689 12.0499 11.932 11.9849C11.9095 11.9512 11.887 11.9174 11.8683 11.8837C11.828 11.8138 11.793 11.7411 11.7633 11.6662C11.7445 11.6174 11.7258 11.5687 11.7108 11.5162C11.6958 11.4637 11.6845 11.4224 11.6733 11.3774C11.662 11.3324 11.6545 11.2649 11.647 11.2087C11.6434 11.16 11.6434 11.1111 11.647 11.0624C11.6452 11.0475 11.6452 11.0324 11.647 11.0174C11.6414 10.9488 11.6414 10.8798 11.647 10.8112C11.6452 10.7862 11.6452 10.7611 11.647 10.7362C11.645 10.7162 11.645 10.6961 11.647 10.6762C11.6619 10.5718 11.6857 10.4689 11.7183 10.3687C11.75 10.2758 11.8168 10.199 11.9044 10.1549C11.9921 10.1107 12.0935 10.1026 12.187 10.1324L15.157 11.2499C15.4361 11.3499 15.6933 11.5026 15.9145 11.6999ZM14.7633 5.39243C14.8948 5.2603 14.9914 5.09758 15.0444 4.91889C15.0974 4.74019 15.1052 4.55113 15.067 4.36868C14.9683 3.91651 14.9786 3.44734 15.097 2.99993C15.2228 2.50352 15.4746 2.04798 15.828 1.67744C16.1815 1.30691 16.6246 1.03392 17.1145 0.884927C17.5059 0.762514 17.9186 0.724176 18.3258 0.772427L17.2796 1.83743C17.1747 1.94194 17.0915 2.06614 17.0347 2.20288C16.9779 2.33963 16.9487 2.48624 16.9487 2.6343C16.9487 2.78237 16.9779 2.92898 17.0347 3.06572C17.0915 3.20247 17.1747 3.32666 17.2796 3.43118L18.3408 4.49993C18.5556 4.70465 18.8409 4.81886 19.1377 4.81886C19.4344 4.81886 19.7198 4.70465 19.9346 4.49993L20.9995 3.41618C21.0436 3.81943 21.0066 4.22741 20.8908 4.61618C20.7433 5.11329 20.4679 5.56299 20.0922 5.92032C19.7164 6.27765 19.2534 6.5301 18.7495 6.65243C18.2986 6.77281 17.8253 6.7831 17.3695 6.68243C17.1865 6.64363 16.9967 6.65109 16.8173 6.70412C16.6379 6.75716 16.4746 6.8541 16.3421 6.98618L13.6795 9.61118V9.58868C13.6466 9.49025 13.6026 9.3959 13.5483 9.30743L12.487 7.65368L14.7633 5.39243ZM10.4733 7.26743C10.5565 7.21472 10.6493 7.17893 10.7464 7.16209C10.8434 7.14525 10.9428 7.14769 11.039 7.16928C11.1351 7.19087 11.226 7.23119 11.3065 7.28792C11.387 7.34465 11.4556 7.41669 11.5083 7.49993L11.692 7.78868L12.817 9.56618L12.442 9.42743C12.3025 9.37875 12.1545 9.35864 12.007 9.3683C11.8594 9.37796 11.7154 9.4172 11.5833 9.48368C11.547 9.50271 11.5119 9.524 11.4783 9.54743L10.147 8.06618C10.1142 7.91676 10.1279 7.76088 10.1862 7.61945C10.2445 7.47802 10.3447 7.3578 10.4733 7.27493V7.26743ZM8.4708 8.50118C8.54059 8.43031 8.62377 8.37404 8.71551 8.33562C8.80725 8.29721 8.90572 8.27743 9.00517 8.27743C9.10463 8.27743 9.2031 8.29721 9.29484 8.33562C9.38658 8.37404 9.46976 8.43031 9.53955 8.50118L11.0095 10.1399C10.9908 10.1999 10.9758 10.2599 10.957 10.3237C10.8102 10.9035 10.8658 11.516 11.1145 12.0599L9.0708 10.1512L8.4708 9.55118C8.33111 9.41065 8.2527 9.22057 8.2527 9.02243C8.2527 8.82429 8.33111 8.6342 8.4708 8.49368V8.50118ZM7.12455 10.6124C7.24102 10.4514 7.41661 10.3433 7.61277 10.3116C7.80893 10.28 8.00962 10.3275 8.1708 10.4437L8.5458 10.7287L10.5895 12.6299C10.5781 12.7652 10.5301 12.8948 10.4508 13.0049C10.4263 13.0387 10.3987 13.0701 10.3683 13.0987C10.2628 13.1928 10.1328 13.2552 9.9933 13.2787C9.85811 13.3061 9.71797 13.2957 9.5883 13.2487L7.55955 11.8237L7.2783 11.6174C7.13115 11.4998 7.03363 11.3312 7.00515 11.145C6.97666 10.9587 7.01928 10.7686 7.12455 10.6124ZM6.1533 12.8624C6.21185 12.7283 6.30838 12.6142 6.43099 12.5342C6.55359 12.4543 6.69692 12.4119 6.8433 12.4124C6.94636 12.4116 7.04848 12.432 7.1433 12.4724H7.1733L9.0708 13.8037C9.07129 13.9027 9.05218 14.0008 9.01455 14.0924C8.98181 14.1859 8.93033 14.2717 8.86327 14.3445C8.7962 14.4174 8.71497 14.4758 8.62455 14.5162C8.44086 14.5922 8.23449 14.5922 8.0508 14.5162L6.5508 13.8674C6.50711 13.8482 6.46562 13.8243 6.42705 13.7962C6.33198 13.7204 6.2551 13.6243 6.20205 13.5149L6.17955 13.4737C6.13527 13.3803 6.11075 13.2789 6.10753 13.1756C6.1043 13.0724 6.12244 12.9696 6.1608 12.8737L6.1533 12.8624Z" fill="#190933"/>
<path d="M9.58145 4.41746C9.56048 4.46235 9.55775 4.51363 9.57384 4.5605C9.58993 4.60737 9.62358 4.64616 9.6677 4.66871L10.4177 5.04371C10.4436 5.0557 10.4717 5.06209 10.5002 5.06246C10.5427 5.06263 10.584 5.04836 10.6173 5.02198C10.6507 4.9956 10.6741 4.95867 10.6836 4.91726C10.6932 4.87585 10.6885 4.83241 10.6701 4.79406C10.6518 4.75571 10.621 4.72474 10.5827 4.70621L9.8327 4.33121C9.78781 4.31023 9.73653 4.30751 9.68966 4.32359C9.64279 4.33968 9.604 4.37333 9.58145 4.41746Z" fill="#190933"/>
<path d="M10.8751 3.93757C10.8997 3.93787 10.924 3.93302 10.9466 3.92333C10.9693 3.91364 10.9896 3.89933 11.0063 3.88132C11.0243 3.86449 11.0386 3.84415 11.0483 3.82158C11.0581 3.79901 11.0631 3.77467 11.0631 3.75007C11.0631 3.72547 11.0581 3.70113 11.0483 3.67856C11.0386 3.65598 11.0243 3.63565 11.0063 3.61882L10.2563 2.86882C10.2215 2.83401 10.1743 2.81445 10.1251 2.81445C10.0758 2.81445 10.0286 2.83401 9.99382 2.86882C9.95901 2.90363 9.93945 2.95084 9.93945 3.00007C9.93945 3.0493 9.95901 3.09651 9.99382 3.13132L10.7438 3.88132C10.7606 3.89933 10.7809 3.91364 10.8035 3.92333C10.8261 3.93302 10.8505 3.93787 10.8751 3.93757Z" fill="#190933"/>
<path d="M12.1875 3.75V3.375C12.1875 3.32527 12.1677 3.27758 12.1326 3.24242C12.0974 3.20725 12.0497 3.1875 12 3.1875C11.9503 3.1875 11.9026 3.20725 11.8674 3.24242C11.8323 3.27758 11.8125 3.32527 11.8125 3.375V3.75C11.8125 3.79973 11.8323 3.84742 11.8674 3.88258C11.9026 3.91775 11.9503 3.9375 12 3.9375C12.0497 3.9375 12.0974 3.91775 12.1326 3.88258C12.1677 3.84742 12.1875 3.79973 12.1875 3.75Z" fill="#190933"/>
</svg>
