<svg width="13" height="13" viewBox="0 0 13 13" fill="none" xmlns="http://www.w3.org/2000/svg">
<g clip-path="url(#clip0_379_281)">
<path d="M6.49678 0.503909C3.18503 0.504612 0.500895 3.1899 0.501597 6.50165C0.501832 7.6484 0.83091 8.77103 1.44976 9.73646L0.516823 12.157C0.467141 12.2858 0.531228 12.4304 0.659965 12.4801C0.688752 12.4912 0.71932 12.4969 0.750169 12.4968C0.778793 12.497 0.807206 12.4921 0.834119 12.4823L3.33265 11.5904C6.14377 13.3412 9.84194 12.4816 11.5927 9.67045C13.3435 6.85931 12.4839 3.16116 9.6728 1.41038C8.71988 0.816872 7.61946 0.502808 6.49678 0.503909Z" fill="#282739"/>
<path d="M9.35563 7.52457C9.35563 7.52457 8.7435 7.22475 8.36022 7.02487C7.92648 6.8015 7.41678 7.21976 7.17692 7.45762C6.80362 7.31422 6.46267 7.09779 6.17402 6.82099C5.89717 6.53239 5.68074 6.19144 5.53739 5.81809C5.77525 5.57774 6.1925 5.06853 5.97014 4.63479C5.77275 4.25102 5.47044 3.63889 5.47044 3.63889C5.42802 3.55471 5.34185 3.50156 5.24757 3.50146H4.74787C4.02014 3.62716 3.49103 4.26212 3.49862 5.00058C3.49862 5.78511 4.43755 7.29223 5.07069 7.92584C5.70383 8.55945 7.21094 9.49792 7.99596 9.49792C8.73441 9.50551 9.36938 8.97637 9.49507 8.24866V7.74897C9.49514 7.65368 9.44108 7.56666 9.35563 7.52457Z" fill="#F7F7F7"/>
</g>
<defs>
<clipPath id="clip0_379_281">
<rect width="12" height="12" fill="white" transform="translate(0.5 0.5)"/>
</clipPath>
</defs>
</svg>
