<svg width="88" height="88" viewBox="0 0 88 88" fill="none" xmlns="http://www.w3.org/2000/svg">
<circle cx="44" cy="44" r="44" fill="white"/>
<path d="M37.4225 23C37.0222 23.0755 36.7334 23.4298 36.74 23.84V24.68H30.02C28.6386 24.68 27.5 25.8186 27.5 27.2V62.48C27.5 63.8614 28.6386 65 30.02 65H58.58C59.9614 65 61.1 63.8614 61.1 62.48V27.2C61.1 25.8186 59.9614 24.68 58.58 24.68H51.86V23.84C51.86 23.3773 51.4827 23 51.02 23H37.58C37.5538 23 37.5275 23 37.5013 23C37.475 23 37.4488 23 37.4225 23ZM38.42 24.68H50.18V29.72H38.42V24.68ZM30.02 26.36H36.74V28.04H30.86V61.64H57.74V28.04H51.86V26.36H58.58C59.0459 26.36 59.42 26.7341 59.42 27.2V62.48C59.42 62.9459 59.0459 63.32 58.58 63.32H30.02C29.5541 63.32 29.18 62.9459 29.18 62.48V27.2C29.18 26.7341 29.5541 26.36 30.02 26.36ZM32.54 29.72H36.74V30.56C36.74 31.0227 37.1173 31.4 37.58 31.4H51.02C51.4827 31.4 51.86 31.0227 51.86 30.56V29.72H56.06V59.96H32.54V29.72ZM50.7838 38.645L50.3113 39.3538L43.4863 49.9325L38.9713 45.89L38.3675 45.3387L37.2388 46.5725L37.8688 47.15L43.0663 51.8487L43.8013 52.505L44.3263 51.6912L51.7288 40.2463L52.175 39.5637L50.7838 38.645Z" fill="#0468FF"/>
</svg>
