<svg width="88" height="88" viewBox="0 0 88 88" fill="none" xmlns="http://www.w3.org/2000/svg">
<circle cx="44" cy="44" r="44" fill="white"/>
<g clip-path="url(#clip0_64_2419)">
<path d="M33.2981 40.1282C36.1639 39.7057 39.9646 39.4731 44.0001 39.4731C48.0356 39.4731 51.8364 39.7059 54.7021 40.1282C58.3673 40.6685 59.8623 41.3827 59.8623 42.5929C59.8623 43.8031 58.3673 44.5172 54.7021 45.0576C51.8364 45.4801 48.0356 45.7127 44.0001 45.7127C39.9646 45.7127 36.1639 45.4799 33.2981 45.0576C29.6329 44.5173 28.1379 43.8031 28.1379 42.5929C28.1379 41.3827 29.6329 40.6687 33.2981 40.1282ZM34.324 43.3487C37.0017 43.6915 40.4382 43.8801 44.0001 43.8801C47.5621 43.8801 50.9985 43.6913 53.6762 43.3487C55.6945 43.0905 56.8238 42.8054 57.4409 42.593C56.8237 42.3806 55.6944 42.0954 53.6762 41.8371C50.9985 41.4945 47.5621 41.3058 44.0001 41.3058C40.4382 41.3058 37.0017 41.4946 34.324 41.8371C32.3058 42.0953 31.1765 42.3806 30.5593 42.593C31.1765 42.8053 32.3059 43.0904 34.324 43.3487Z" fill="#0468FF"/>
<path d="M21.0161 52.674L21.1067 52.1949C21.2007 51.6977 21.6803 51.3709 22.1774 51.4649C22.6747 51.5589 23.0015 52.0383 22.9074 52.5355L22.8168 53.0146C22.7336 53.4544 22.3492 53.7608 21.9176 53.7608C21.8611 53.7608 21.8037 53.7555 21.7462 53.7447C21.2489 53.6506 20.9221 53.1713 21.0161 52.674Z" fill="#0468FF"/>
<path d="M21.7231 48.9374L22.9874 42.2548C23.2286 40.4433 25.4272 38.9616 29.5335 37.8471C33.4095 36.795 38.5472 36.2155 44.0001 36.2155C49.453 36.2155 54.5906 36.7949 58.4668 37.847C62.573 38.9615 64.7716 40.4432 65.0129 42.2547L66.9839 52.674C67.0779 53.1713 66.7511 53.6506 66.2538 53.7447C66.1962 53.7556 66.139 53.7609 66.0825 53.7609C65.6509 53.7609 65.2663 53.4544 65.1832 53.0148L63.674 45.0374C62.5852 45.923 60.8472 46.6927 58.4667 47.3388C54.8085 48.3318 50.0265 48.9033 44.9164 48.9645V56.8682C44.9164 57.3743 44.5061 57.7845 44 57.7845C43.4939 57.7845 43.0837 57.3743 43.0837 56.8682V48.9645C37.9737 48.9034 33.1916 48.3317 29.5334 47.3388C27.1529 46.6927 25.4149 45.9229 24.3261 45.0374L23.5238 49.2783C23.4406 49.718 23.056 50.0244 22.6245 50.0244C22.5679 50.0244 22.5106 50.0191 22.4531 50.0081C21.9558 49.914 21.6289 49.4347 21.7231 48.9374ZM30.0134 45.5701C33.7375 46.581 38.7047 47.1376 43.9999 47.1376C49.2952 47.1376 54.2624 46.581 57.9865 45.5701C61.59 44.592 63.2031 43.3701 63.2031 42.593C63.2031 42.5711 63.2014 42.5487 63.1987 42.5261L63.181 42.4321C62.9791 41.6542 61.3503 40.5288 57.9865 39.6157C54.2624 38.6049 49.2952 38.0482 43.9999 38.0482C38.7047 38.0482 33.7375 38.6049 30.0134 39.6157C26.6496 40.5287 25.0208 41.6542 24.8189 42.4321L24.8011 42.5261C24.7985 42.5486 24.7968 42.571 24.7968 42.593C24.7969 43.3701 26.4099 44.592 30.0134 45.5701Z" fill="#0468FF"/>
</g>
<defs>
<clipPath id="clip0_64_2419">
<rect width="46" height="46" fill="white" transform="matrix(-1 0 0 1 67 24)"/>
</clipPath>
</defs>
</svg>
