<svg width="88" height="88" viewBox="0 0 88 88" fill="none" xmlns="http://www.w3.org/2000/svg">
<circle cx="44" cy="44" r="44" fill="white"/>
<path d="M20 26.0005V27.9205H46.97C47.3525 27.9205 47.84 28.408 47.84 28.7905V54.8005H38.15C37.6925 52.078 35.3263 50.0005 32.48 50.0005C29.6337 50.0005 27.2675 52.078 26.81 54.8005H22.88C22.3475 54.8005 21.92 54.373 21.92 53.8405V45.2005H20V53.8405C20 55.4192 21.3013 56.7205 22.88 56.7205H26.81C27.2675 59.443 29.6337 61.5205 32.48 61.5205C35.3263 61.5205 37.6925 59.443 38.15 56.7205H52.73C53.1875 59.443 55.5537 61.5205 58.4 61.5205C61.2463 61.5205 63.6125 59.443 64.07 56.7205H65.12C65.9187 56.7205 66.62 56.3605 67.13 55.8505C67.64 55.3405 68 54.6392 68 53.8405V44.6305C68 43.5505 67.5875 42.5605 67.22 41.8105C66.8525 41.0605 66.47 40.5205 66.47 40.5205V40.4905L62.54 35.2105H62.51V35.1805C61.6587 34.1155 60.2938 32.7205 58.4 32.7205H50.72C50.375 32.7205 50.06 32.7842 49.76 32.9005V28.7905C49.76 27.253 48.5075 26.0005 46.97 26.0005H20ZM20 29.8405V31.7605H37.28V29.8405H20ZM20 33.6805V35.6005H34.4V33.6805H20ZM50.72 34.6405H54.56V43.2805C54.56 44.0792 54.92 44.7805 55.43 45.2905C55.94 45.8005 56.6413 46.1605 57.44 46.1605H66.08V53.8405C66.08 54.0017 65.96 54.2605 65.75 54.4705C65.54 54.6805 65.2812 54.8005 65.12 54.8005H64.07C63.6125 52.078 61.2463 50.0005 58.4 50.0005C55.5537 50.0005 53.1875 52.078 52.73 54.8005H49.76V35.6005C49.76 35.4392 49.88 35.1805 50.09 34.9705C50.3 34.7605 50.5587 34.6405 50.72 34.6405ZM56.48 34.6405H58.4C59.1912 34.6405 60.2938 35.5292 60.98 36.3805L64.91 41.6305L64.94 41.6605C64.9587 41.6867 65.2175 42.0542 65.51 42.6505C65.7537 43.1455 65.8812 43.7342 65.96 44.2405H57.44C57.2787 44.2405 57.02 44.1205 56.81 43.9105C56.6 43.7005 56.48 43.4417 56.48 43.2805V34.6405ZM20 37.5205V39.4405H31.52V37.5205H20ZM20 41.3605V43.2805H28.64V41.3605H20ZM32.48 51.9205C34.6137 51.9205 36.32 53.6267 36.32 55.7605C36.32 57.8942 34.6137 59.6005 32.48 59.6005C30.3462 59.6005 28.64 57.8942 28.64 55.7605C28.64 53.6267 30.3462 51.9205 32.48 51.9205ZM58.4 51.9205C60.5337 51.9205 62.24 53.6267 62.24 55.7605C62.24 57.8942 60.5337 59.6005 58.4 59.6005C56.2663 59.6005 54.56 57.8942 54.56 55.7605C54.56 53.6267 56.2663 51.9205 58.4 51.9205Z" fill="#0468FF"/>
</svg>
