<svg width="88" height="88" viewBox="0 0 88 88" fill="none" xmlns="http://www.w3.org/2000/svg">
<circle cx="44" cy="44" r="44" fill="white"/>
<path d="M53.3333 42.6667H34.6667C33.1939 42.6667 32 43.8606 32 45.3333V54.6667C32 56.1394 33.1939 57.3333 34.6667 57.3333H53.3333C54.8061 57.3333 56 56.1394 56 54.6667V45.3333C56 43.8606 54.8061 42.6667 53.3333 42.6667Z" stroke="#0468FF" stroke-width="2" stroke-linecap="round" stroke-linejoin="round"/>
<path d="M37.3333 42.6667V37.3333C37.3333 35.5652 38.0356 33.8695 39.2859 32.6193C40.5361 31.369 42.2318 30.6667 43.9999 30.6667C45.768 30.6667 47.4637 31.369 48.714 32.6193C49.9642 33.8695 50.6666 35.5652 50.6666 37.3333V42.6667" stroke="#0468FF" stroke-width="2" stroke-linecap="round" stroke-linejoin="round"/>
</svg>
