<svg width="88" height="88" viewBox="0 0 88 88" fill="none" xmlns="http://www.w3.org/2000/svg">
<circle cx="44" cy="44" r="44" fill="white"/>
<path d="M44.1 27C34.695 27 27 34.695 27 44.1C27 53.505 34.695 61.2 44.1 61.2C53.505 61.2 61.2 53.505 61.2 44.1C61.2 34.695 53.505 27 44.1 27Z" stroke="#0468FF" stroke-width="2" stroke-miterlimit="10" stroke-linecap="round" stroke-linejoin="round"/>
<path d="M33.9954 51.8713C37.7877 51.8713 36.9241 53.4258 45.7726 53.4258C52.4439 53.4258 52.374 51.8106 52.374 51.108C52.374 50.3354 51.9527 49.7734 51.9527 49.7734C51.9527 49.7734 53.4272 49.2122 53.4272 47.9484C53.4272 46.7545 52.3032 46.3332 52.3032 46.3332C52.3032 46.3332 53.4272 45.7712 53.4272 44.5773C53.4272 43.3135 52.1633 42.8922 52.1633 42.8922C52.1633 42.8922 52.304 41.9789 52.304 41.4177C52.304 40.7151 51.5827 40.2129 50.3189 40.2129C48.4931 40.2129 48.591 40.2129 46.2592 40.2129C44.7046 40.2129 43.6561 39.6362 44.288 38.2317C45.0606 36.6165 45.9879 34.2544 45.0746 32.7091C44.5126 31.7259 42.7568 30.9533 42.5461 32.7091C42.1249 37.1334 38.8914 37.906 37.3462 39.7318C36.0108 41.347 35.3999 43.3213 33.9954 43.3213" stroke="#0468FF" stroke-width="2" stroke-miterlimit="10" stroke-linejoin="round"/>
</svg>
